<?xml version="1.0" encoding="utf-8"?>
<!-- Generator: Adobe Illustrator 18.1.1, SVG Export Plug-In . SVG Version: 6.00 Build 0)  -->
<svg version="1.1" id="Layer_1" xmlns="http://www.w3.org/2000/svg" xmlns:xlink="http://www.w3.org/1999/xlink" x="0px" y="0px"
	 viewBox="0 0 179.3 164.1" enable-background="new 0 0 179.3 164.1" xml:space="preserve" preserveAspectRatio="none">
<g>
	<g>
		<path fill="#FFFFCC" d="M37.7,131.5l-0.2-45.8c0-0.3-0.1-0.6-0.4-0.8L14.9,67.5L9.6,52L15,30.4l23.5-0.5c0.5,0,1-0.5,1-1v-0.9
			l44.7,0.9l40.5-0.9v0.7c0,0.5,0.4,1,1,1l34.7,0.7l5.9,21.6l-5.8,15.5L136,84.9c-0.3,0.2-0.4,0.5-0.4,0.8l-0.3,45.8H37.7z"/>
		<path fill="#CCAE66" d="M40.4,29l43.7,0.9c0,0,0,0,0,0c0,0,0,0,0,0l39.5-0.9c0.1,1,0.9,1.7,1.9,1.7l34,0.7l5.6,20.6l-5.6,14.9
			l-24.2,17.2c-0.5,0.4-0.8,1-0.8,1.6l-0.2,44.8h-8.7h-87l-0.2-44.8c0-0.6-0.3-1.2-0.8-1.6L15.8,66.9l-5.1-15l5.1-20.6l22.7-0.5
			C39.5,30.8,40.4,30,40.4,29 M125.7,26.9l-41.5,0.9l-45.7-0.9v1.9l-24.2,0.5L8.6,52l5.5,16.1l22.4,17.6l0.2,46.8h1.7h87.2h10.7
			l0.3-46.8l24.7-17.6l6-16.1l-6.2-22.6l-35.5-0.7V26.9L125.7,26.9z"/>
	</g>
	<g>
		<path fill="#FFFFCC" d="M140.7,107.6c-0.5,0-1,0-1.6-0.1c-4.5-0.4-9.3-2.2-13.5-5.3c0-0.1,0.1-0.3,0.1-0.3l0.6-1.5
			c1.5-0.6,6.9-2.7,10.5-3c0.6,0,1.1-0.1,1.7-0.1c4.1,0,6.9,1.2,8.4,3.6c0.7,1.1,1.3,2.7,0.6,4C146.7,106.6,144,107.6,140.7,107.6
			C140.7,107.6,140.7,107.6,140.7,107.6z"/>
		<path fill="#CCAE66" d="M138.5,98.5c3.7,0,6.3,1,7.6,3.1c0.5,0.9,1.1,2.1,0.6,3c-0.7,1.3-3,2.1-6,2.1c-0.5,0-1,0-1.5-0.1
			c-2.4-0.2-7.2-1.1-12.3-4.7l0.3-0.6c2.3-0.9,6.9-2.6,9.8-2.8C137.5,98.5,138,98.5,138.5,98.5 M138.5,96.5c-0.6,0-1.2,0-1.8,0.1
			c-4.3,0.3-11.2,3.2-11.2,3.2l-0.7,1.8c0,0.1-0.2,0.4-0.4,1c4.9,3.8,10.2,5.6,14.7,6c0.6,0,1.1,0.1,1.6,0.1c6.3,0,10.2-3.3,7.1-8.1
			C145.9,97.5,142.4,96.5,138.5,96.5L138.5,96.5z"/>
	</g>
	<g>
		<path fill="#FFFFCC" d="M122.1,132.8c2.6-7.7,3.1-17.5,3.1-24.7c3.9,2.4,8.1,3.9,12.3,4.4c-0.1,2.2-0.1,5.2,0.6,8.4
			c1.5,7.2-1.6,10.5-3.8,11.9H122.1z"/>
		<path fill="#CCAE66" d="M126.2,109.8c3.3,1.8,6.8,3,10.2,3.5c-0.1,2.2,0,4.9,0.6,7.7c1,4.9-0.1,8.6-3.1,10.7h-10.5
			C125.6,124.8,126.2,116.4,126.2,109.8 M124.2,106.2l0,1.7c0.1,7.7-0.5,18.2-3.5,25.8h13.9c3.5-2.1,5.9-6.3,4.5-13.1
			c-0.8-3.6-0.7-6.8-0.5-9.1C133.7,111.1,128.7,109.3,124.2,106.2L124.2,106.2z"/>
	</g>
	<g>
		<path fill="#FFFFCC" d="M116,128.5c0.5-5.6,0.5-11.9,0.1-19c1.6,0.7,3.2,1.1,4.8,1.1c3.2,0,6.3-1.4,9.1-4.2
			c-0.1,6.3-0.7,15.7-3.4,22.2H116z"/>
		<path fill="#CCAE66" d="M128.9,108.6c-0.2,5.9-0.9,13.3-3,18.9h-8.8c0.4-4.9,0.4-10.5,0.1-16.6c1.2,0.4,2.5,0.6,3.7,0.6
			C123.7,111.5,126.4,110.5,128.9,108.6 M130.9,103.7c-3,3.8-6.4,5.8-10.1,5.8c-2,0-4-0.6-5.9-1.8c0.4,6.8,0.6,14.6-0.1,21.8h12.3
			C130.5,122,131,110.4,130.9,103.7L130.9,103.7z"/>
	</g>
	<g>
		<path fill="#FFFFCC" d="M111,109.8c-1.7,0-3.4-0.8-5.2-2.4c-0.1-1.5-0.3-2.9-0.4-4.2c-0.1-1-0.2-1.9-0.3-2.7L105,100l-0.1-0.9
			c1.8-0.9,4.4-1.8,7.2-1.8c3,0,5.8,1.1,8.3,3.2c0.1,0.1,0.2,0.1,0.3,0.2c-0.2,0.3-0.4,0.8-0.7,1.3
			C118.5,104.9,115.2,109.8,111,109.8C111,109.8,111,109.8,111,109.8z"/>
		<path fill="#CCAE66" d="M112.2,98.3c2.6,0,5.1,0.9,7.3,2.7c-0.1,0.2-0.2,0.4-0.3,0.6c-1.2,2.2-4.3,7.2-8.1,7.2
			c-1.4,0-2.8-0.6-4.3-1.9c-0.1-1.4-0.3-2.7-0.4-3.8c-0.1-1-0.2-1.9-0.3-2.7l-0.1-0.5l0-0.1C107.7,99,109.8,98.3,112.2,98.3
			 M112.2,96.3c-3.3,0-6.2,1.2-8.3,2.3l0.2,1.5l0.1,0.5c0.1,0.8,0.2,1.7,0.3,2.7c0.2,1.4,0.3,2.9,0.4,4.5c2.2,2.1,4.3,2.9,6.2,2.9
			c4.8,0,8.3-5.2,9.9-8.2c0.6-1.2,1-2,1-2c-0.3-0.3-0.6-0.5-0.8-0.7C118.1,97.2,115,96.3,112.2,96.3L112.2,96.3z"/>
	</g>
	<g>
		<path fill="#FFFFCC" d="M122.6,95.8c-3.2-2.3-6.7-3.5-10.5-3.5c-2.4,0-4.9,0.5-7.4,1.5c-0.3-0.7-0.6-1.3-0.9-1.8
			c-0.8-1.3-1.7-2.6-2.8-3.7c0.2-4.2,1.2-9.8,4.9-12.9c0.9-0.8,2-1.4,3.2-1.8c1.5-0.5,2.7-0.8,3.5-0.8c0.6,0,1,0.1,1.2,0.4
			c0.5,0.6,0.4,2.1,0.3,3.6c-0.1,2.3-0.3,5.2,1.8,7c1.2,1,2.7,1.5,4.5,1.5h0c1.8,0,3.6-0.5,5.2-0.9c1.2-0.3,2.3-0.6,3-0.6
			c0.2,0,0.5,0,0.7,0.2c0.1,0.1,0.3,0.5,0.1,1.7c-0.1,0.8-0.3,1.6-0.5,2.4c0,0,0,0.1,0,0.1l0,0c-0.6,2.4-1.5,4.6-2.6,6.5
			C125.2,94.9,123.9,95.4,122.6,95.8z"/>
		<path fill="#CCAE66" d="M112.7,71.8l0,2c0.3,0,0.5,0,0.5,0.1c0.2,0.4,0.1,1.9,0.1,2.8c-0.2,2.4-0.4,5.8,2.2,7.8
			c1.4,1.1,3.1,1.7,5.1,1.7c1.9,0,3.8-0.5,5.5-0.9c1-0.3,2-0.5,2.6-0.6c0,0.2,0,0.4-0.1,0.7c-0.1,0.8-0.3,1.5-0.4,2.3
			c0,0,0,0.1,0,0.1l0,0c-0.5,2.1-1.3,4.2-2.3,5.9c-1,0.3-2,0.6-2.9,1c-3.2-2.2-6.8-3.4-10.6-3.4c-2.3,0-4.6,0.4-6.9,1.2
			c-0.2-0.4-0.4-0.7-0.6-1.1c-0.7-1.3-1.6-2.5-2.7-3.6c0.2-4,1.2-8.9,4.6-11.7c0.8-0.7,1.8-1.2,2.9-1.6c1.7-0.6,2.7-0.7,3.2-0.7
			V71.8 M112.7,71.8c-0.9,0-2.2,0.2-3.9,0.8c-1.4,0.5-2.6,1.1-3.6,2c-4.2,3.5-5.2,9.6-5.3,14c1.1,1.1,2.1,2.3,3,3.8
			c0.5,0.8,0.9,1.7,1.2,2.6c2.2-0.9,4.9-1.8,8-1.8c3.8,0,7.2,1.2,10.3,3.6c1.1-0.4,2.7-1,4.6-1.6c1.3-2,2.3-4.5,3-7.1c0,0,0,0,0,0
			c0.2-0.8,0.4-1.7,0.5-2.6c0.3-2.3-0.4-3-1.8-3c-2,0-5.2,1.5-8.3,1.5c-1.4,0-2.7-0.3-3.8-1.2C112.9,79.9,118,71.8,112.7,71.8
			L112.7,71.8z"/>
	</g>
	<g>
		<path fill="#FFFFCC" d="M132.8,93c0.4-0.9,0.7-1.8,0.9-2.7c0-0.1,0.1-0.1,0.1-0.2l0.2-0.8c0.2-1,0.4-2,0.6-3
			c0.1-0.4,0.2-1.4,0-2.6c1-1.2,1.9-2.3,2.8-3.3c1.7-1.9,3.4-3.5,5.1-5c1.2-1,4.1-2.8,8.2-5.1c7.9-4.4,13.4-12.5,14-20.7
			c0.4-5.2-1-12.7-9.2-19.9h2.8c8.2,6.7,11.9,14.8,10.7,23.3c-1.7,11.9-11.8,21.3-20.6,25c-7.3,3.1-10.5,10.2-11.9,14.5
			c-0.1,0-0.1,0-0.2,0C135.3,92.6,134.1,92.8,132.8,93z"/>
		<path fill="#CCAE66" d="M158.3,30.8c7.6,6.4,11,14,9.8,22c-1.5,11-11.2,20.5-20,24.2c-7.4,3.1-10.7,9.9-12.2,14.5
			c-0.5,0-1,0.1-1.5,0.2c0.1-0.4,0.2-0.7,0.3-1.1c0.1-0.1,0.1-0.2,0.1-0.4l0.2-0.8c0.3-1.1,0.5-2.1,0.6-3c0.1-0.6,0.2-1.5,0.1-2.5
			c0.9-1.1,1.7-2,2.5-2.9c1.7-1.8,3.3-3.5,5-4.9c1.1-1,4-2.7,8-5c8.2-4.6,13.9-13,14.5-21.5C166.1,44.6,165,37.7,158.3,30.8
			 M158.8,28.7h-6c18.8,14.3,10.6,33.4-2.5,40.7c-2,1.1-6.6,3.7-8.4,5.2c-1.9,1.6-3.6,3.4-5.2,5c-1.2,1.3-2.2,2.6-3.1,3.7
			c0.3,1.2,0.1,2.3,0,2.8c-0.1,0.9-0.3,1.9-0.6,2.9l-0.2,0.8l0,0c-0.4,1.6-1,3.1-1.7,4.5c1.7-0.4,3.5-0.7,5.3-0.8c0.3,0,0.6,0,0.9,0
			c1.1-4.2,4.1-11.5,11.5-14.6C165.6,71.8,182.1,47.5,158.8,28.7L158.8,28.7z"/>
	</g>
	<g>
		<path fill="#FFFFCC" d="M105.5,71.4c-1.1-0.9-2.5-2.1-4-2.9c-1.2-0.7-2.3-1.2-3.3-1.4c-0.5-0.1-1-0.2-1.6-0.2
			c-0.6,0-1.2,0.1-1.8,0.2c-0.2,0-0.4,0.1-0.6,0.2c-1.1-1.4-0.8-3.1-0.5-4c0.6-1.9,1.9-3.3,2.9-3.5c0.1,0,0.2,0,0.3,0
			c0.7,0,1.7,0.5,2.7,1c1.2,0.6,2.6,1.3,4,1.3c0.7,0,1.4-0.2,2-0.5c1,3,2.4,5.8,4.1,8.3c-0.5,0.1-1.1,0.3-1.7,0.5
			C107.1,70.5,106.3,70.9,105.5,71.4z"/>
		<path fill="#CCAE66" d="M96.9,60.7c0.5,0,1.4,0.5,2.2,0.9c1.3,0.7,2.8,1.4,4.5,1.4c0.5,0,1-0.1,1.4-0.2c0.8,2.3,1.9,4.4,3.1,6.4
			c-0.1,0-0.3,0.1-0.5,0.1c-0.7,0.2-1.4,0.5-2,0.9c-1-0.9-2.3-1.8-3.6-2.6c-1.3-0.7-2.5-1.3-3.6-1.5c-0.6-0.1-1.2-0.2-1.8-0.2
			c-0.6,0-1.3,0.1-1.9,0.2c-0.4-0.9-0.3-1.8,0-2.6C95.2,61.8,96.4,60.8,96.9,60.7C96.8,60.7,96.9,60.7,96.9,60.7 M96.9,58.7
			c-0.1,0-0.3,0-0.4,0c-2.5,0.5-5.9,6.2-2.5,9.6c0.4-0.1,0.7-0.3,1.1-0.3c0.5-0.1,1-0.2,1.6-0.2c0.4,0,0.9,0,1.3,0.1
			c0.9,0.2,1.9,0.6,3,1.3c1.7,1,3.4,2.4,4.4,3.3c0.9-0.6,1.9-1.1,2.9-1.4c1.2-0.4,2.2-0.6,3.1-0.8c-2.2-2.8-4-6.4-5.3-10.7
			c-0.8,0.9-1.7,1.3-2.6,1.3C101.3,61,98.9,58.7,96.9,58.7L96.9,58.7z"/>
	</g>
	<g>
		<path fill="#FFFFCC" d="M103.2,55.5c-0.4-0.2-1.1-0.5-1.3-0.6c-1.4-0.7-3-1.5-5-1.5c-0.3,0-0.5,0-0.8,0c-0.2-1.9,0.4-3.3,1.9-4.2
			c1.1-0.7,1.5-0.8,1.7-0.8c0.1,0.1,0.2,0.6,0.3,0.8c0.2,0.8,0.7,2.3,2.3,2.3c0.1,0,0.1,0,0.2,0c0.5,0,0.9-0.2,1.3-0.3
			c0.1,1.1,0.2,2.1,0.4,3.2L103.2,55.5z"/>
		<path fill="#CCAE66" d="M99,49.7c0.3,0.9,1,2.9,3.2,2.9c0.1,0,0.2,0,0.3,0c0.1,0,0.2,0,0.4,0c0.1,0.5,0.1,1.1,0.2,1.6l-0.2,0.2
			c-0.3-0.1-0.5-0.2-0.6-0.3c-1.4-0.7-3.1-1.6-5.3-1.6c0.1-1.3,0.8-1.9,1.4-2.3C98.7,49.9,98.9,49.8,99,49.7 M99.6,47.4
			c-0.5,0-1.2,0.3-2.2,0.9c-2.6,1.7-2.6,4.3-2.1,6.3c0.2-0.1,0.3-0.1,0.5-0.2c0.3-0.1,0.7-0.1,1.1-0.1c1.7,0,3.2,0.8,4.6,1.4
			c0.7,0.3,1.7,0.8,2.1,0.9c0,0,0.1-0.1,0.2-0.2l1.5-1.7c0-0.1,0-0.2-0.1-0.3c-0.4-1.9-0.5-3.8-0.6-5.5c-0.5,0.9-1,1.6-2.2,1.7
			c0,0-0.1,0-0.1,0C100.5,50.6,101.4,47.4,99.6,47.4L99.6,47.4z"/>
	</g>
	<g>
		<path fill="#FFFFCC" d="M112.5,40.1c-0.8-0.6-1.8-0.9-3-0.9c-0.3,0-0.6,0-0.9,0.1c0.4-1.7,1.2-3.2,2.8-3.4c0.1,0,0.2,0,0.4,0
			c0.7,0,0.8,0.2,1,1.3c0.1,0.4,0.2,1.1,0.7,1.6L112.5,40.1z"/>
		<path fill="#CCAE66" d="M111.6,36.8c0,0.1,0.1,0.3,0.1,0.4c0.1,0.3,0.2,0.9,0.4,1.5l0,0c-0.7-0.3-1.4-0.5-2.2-0.5
			c0.3-0.7,0.8-1.2,1.5-1.3C111.5,36.8,111.6,36.8,111.6,36.8 M111.7,34.8c-0.1,0-0.3,0-0.5,0c-2.8,0.3-3.7,3.3-3.9,5.8
			c0.8-0.3,1.5-0.5,2.2-0.5c1.3,0,2.4,0.5,3.2,1.5l2.1-3.4c0,0,0,0,0-0.1c-0.1,0-0.2,0-0.3,0C113,38.2,114.4,34.8,111.7,34.8
			L111.7,34.8z M114.8,38.2L114.8,38.2L114.8,38.2z"/>
	</g>
	<g>
		<path fill="#FFFFCC" d="M134.4,78.5c-6.8-0.7-21.7-4.6-25.1-23.4c-0.5-2.5-0.7-5-0.6-7.3c0.1-2.1,0.4-4.2,1-6.1
			c0.8-2.9,2.3-5.6,4.2-7.8c2.3-2.7,4.6-4,5.3-4.3h7.9c-9.9,3.4-16.2,13-16.6,22.1c-1,19.2,14,24.7,24.3,26.3
			C134.6,78.2,134.5,78.4,134.4,78.5z M142.4,71c-17.9-2.2-25.6-11.3-25.2-18.9c0.4-8.3,7.6-17.2,17.6-17.2c0,0,0.1,0,0.2,0
			c9.8,0.1,14.3,6.2,15.3,11.3c1,5.3-1.4,11.9-8.8,14.5c-1.8,0.7-3.6,1-5.3,1c-5.6,0-8.1-3.7-9-5.3c-1.8-3.4-1.9-8,1.6-10.3
			c1.4-0.9,2.8-1.4,4.1-1.4c1.5,0,2.9,0.7,3.9,1.9c0.6,0.8,0.9,1.6,0.8,2.3c-0.1,0.4-0.2,0.7-0.6,1c-0.7,0.5-1.1,0.6-1.2,0.6
			c-0.4-0.1-0.9-0.9-1.2-1.4c-0.4-0.7-0.8-1.3-1.3-1.7c-0.9-0.6-1.7-0.9-2.4-0.9c-1.6,0-2.6,1.4-2.6,3.8c0,0.8,1.1,5.2,5.5,6.5
			c0.6,0.2,1.3,0.3,1.9,0.3c1.8,0,3.6-0.7,5.3-2c1.7-1.3,2.8-3.2,3.1-5.3c0.3-2.4-0.4-4.9-2.1-7.1c-2.2-2.8-5.6-4.5-9.3-4.5
			c-2.7,0-5.3,0.9-7.9,2.5c-6,3.9-7.6,11.8-3.8,18.8c3,5.5,8.5,8.8,14.9,8.8c2.4,0,5-0.5,7.6-1.4c11-3.9,14.5-13.8,13.1-21.8
			c-1.1-6-5.3-12.7-13.8-15.5h6.9l1.3,1c6.4,4.9,9.5,10.9,9,17.5c-0.7,9-7.7,16.8-14,20.3C145,69.2,143.7,70,142.4,71z"/>
		<path fill="#CCAE66" d="M149.6,30.7l1,0.8c6.1,4.7,9.1,10.4,8.6,16.6c-0.3,3.4-1.4,6.6-3.1,9.4c1.9-4,2.4-8.5,1.7-12.5
			c-0.9-5.1-4.1-10.8-10-14.3H149.6 M122.4,30.7c-7,4-11.5,11.2-12.7,18.5c0-0.4,0-0.8,0-1.2c0.1-2,0.4-4,0.9-5.8
			c0.8-2.8,2.1-5.3,4-7.4c2-2.3,4-3.5,4.7-4H122.4 M134.8,35.9C134.8,35.9,134.8,35.9,134.8,35.9c0.1,0,0.1,0,0.2,0
			c4.2,0.1,7.7,1.3,10.3,3.6c2.8,2.5,3.7,5.4,3.9,6.9c0.9,4.9-1.3,10.9-8.1,13.4c-1.7,0.6-3.4,0.9-4.9,0.9c-5,0-7.4-3.3-8.1-4.7
			c-1.1-2.1-1.5-4.8-0.6-6.8c0,0.4-0.1,0.7-0.1,1.2c0,1.5,1.5,6.1,6.3,7.4c0.7,0.2,1.4,0.3,2.2,0.3c2,0,4-0.7,5.9-2.2
			c1.9-1.5,3.2-3.6,3.5-5.9c0.4-2.6-0.5-5.4-2.3-7.8c-2.4-3.1-6.1-4.9-10.1-4.9c-2.9,0-5.7,0.9-8.4,2.7c-0.3,0.2-0.7,0.5-1,0.7
			C126.4,37.8,130.2,35.9,134.8,35.9C134.7,35.9,134.8,35.9,134.8,35.9 M132.9,45.8c1.7,0,2.7,1,3.1,1.5c0.5,0.6,0.6,1.2,0.6,1.6
			c0,0.1-0.1,0.2-0.2,0.3c-0.2,0.1-0.3,0.2-0.4,0.3c-0.2-0.2-0.4-0.6-0.5-0.8c-0.4-0.8-0.9-1.5-1.6-2c-0.5-0.3-1-0.6-1.5-0.8
			C132.5,45.8,132.7,45.8,132.9,45.8 M118.2,51.3c-0.1,1.8,0.2,3.7,0.8,5.5c-0.6-1.6-0.9-3.1-0.8-4.7
			C118.1,51.9,118.1,51.6,118.2,51.3 M149,65.4c-1.1,0.8-2.2,1.6-3.2,2.2c-1.2,0.7-2.4,1.5-3.7,2.4c-1.5-0.2-2.9-0.4-4.3-0.7
			c2-0.2,4.1-0.6,6.3-1.4C145.9,67.2,147.6,66.4,149,65.4 M150.2,28.7H135h-16.1c0,0-2.9,1.3-5.8,4.6c-1.7,2-3.4,4.7-4.4,8.2
			c-0.6,1.9-0.9,4-1,6.3c-0.1,2.2,0.1,4.7,0.6,7.5C112,75.7,129,79,134.8,79.5c0.3-0.3,0.5-0.6,0.8-0.9c0.4-0.5,0.8-0.9,1.2-1.3
			c-21.5-2.4-25.9-14.9-25.4-25.5c0.5-10.8,9.6-22.4,23.3-22.4c0.1,0,0.2,0,0.3,0c13.2,0.2,19.5,8.7,20.8,15.9
			c1.4,7.6-1.9,16.9-12.4,20.6c-2.6,0.9-5.1,1.4-7.3,1.4c-6.9,0-11.7-4-14-8.2c-3.5-6.5-2.1-13.8,3.5-17.5c2.6-1.7,5.1-2.4,7.3-2.4
			c3.6,0,6.6,1.7,8.5,4.1c2.9,3.8,2.5,8.4-0.8,10.9c-1.8,1.4-3.4,1.8-4.7,1.8c-0.6,0-1.2-0.1-1.7-0.2c-3.9-1.1-4.8-5-4.8-5.5
			c0-0.9,0.2-2.8,1.6-2.8c0.5,0,1,0.2,1.8,0.7c0.8,0.5,1.5,2.9,2.7,3.3c0.1,0,0.2,0,0.3,0c0.5,0,1.1-0.3,1.8-0.8
			c1.6-1.2,1.1-3.3,0-4.7c-1-1.3-2.6-2.3-4.7-2.3c-1.4,0-3,0.5-4.7,1.6c-4,2.6-4,7.8-1.9,11.6c1.7,3.1,5,5.8,9.9,5.8
			c1.7,0,3.6-0.3,5.6-1.1c7.9-2.8,10.4-9.9,9.4-15.6c-1-5.5-5.8-12-16.2-12.2c-0.1,0-0.2,0-0.3,0c-10.6,0-18.2,9.3-18.6,18.1
			c-0.4,8.5,8.2,17.9,26.5,20c1.4-1.1,2.8-2,4.1-2.7c6.5-3.6,13.8-11.7,14.5-21.1c0.5-6.9-2.7-13.3-9.4-18.4L150.2,28.7L150.2,28.7z
			"/>
	</g>
	<g>
		<path fill="#FFFFCC" d="M87.6,109.3c-0.4-0.1-2.5-0.7-3.6-5.8c-1.1-5.5-6.3-7.4-8.7-7.9c0.2-0.4,0.4-0.8,0.6-1.1
			c4-6.9,8.6-7.7,11.7-7.7c3.1,0,7.7,0.8,11.7,7.7c0.2,0.4,0.4,0.8,0.6,1.2c-2.5,0.6-7.6,2.4-8.7,7.9
			C90.2,108.6,88,109.2,87.6,109.3z"/>
		<path fill="#CCAE66" d="M87.6,87.7c2.9,0,7.1,0.7,10.8,7.2c-6.3,1.9-7.9,6.4-8.3,8.4c-0.7,3.8-2.1,4.7-2.6,4.9
			c-0.5-0.2-1.8-1.2-2.6-4.9c-1.1-5.3-5.4-7.5-8.3-8.4c0,0,0,0,0,0C80.5,88.4,84.7,87.7,87.6,87.7 M87.6,85.7
			c-3.8,0-8.6,1.3-12.6,8.2c-0.4,0.7-0.8,1.6-1.1,2.4c0,0,0.3,0,0.9,0.2c2.1,0.4,7.2,2,8.2,7.2c1.3,6.5,4.5,6.6,4.5,6.6
			s3.2-0.1,4.5-6.6c1-5.2,6.2-6.8,8.2-7.2c0.6-0.1,0.9-0.2,0.9-0.2c-0.3-0.9-0.7-1.7-1.1-2.4C96.2,87,91.4,85.7,87.6,85.7L87.6,85.7
			z"/>
	</g>
	<g>
		<path fill="#FFFFCC" d="M87.6,81.9c-2.7,0-4.3-2.8-6-5.9c-0.4-0.7-0.8-1.3-1.2-2c-0.7-1.1-2.3-2.4-3.5-3.3
			c0.3-0.1,0.6-0.2,0.8-0.3c0.3-0.1,0.5-0.1,0.8-0.1c0.3,0,0.6,0,1,0.1c0.9,0.2,1.7,0.6,2.6,1c1.5,0.7,3.2,1.5,5.3,1.5h0.3
			c2,0,3.7-0.8,5.3-1.5c0.9-0.4,1.8-0.8,2.6-1c0.4-0.1,0.7-0.1,1-0.1c0.3,0,0.5,0,0.8,0.1c0.3,0.1,0.5,0.1,0.8,0.3
			c-1.2,0.9-2.8,2.2-3.5,3.3c-0.4,0.6-0.8,1.3-1.2,2C91.9,79.1,90.3,81.9,87.6,81.9L87.6,81.9z"/>
		<path fill="#CCAE66" d="M79.5,71.5c0.7,0.2,1.5,0.5,2.3,0.9c1.6,0.7,3.4,1.6,5.7,1.6c0.1,0,0.1,0,0.2,0c0.1,0,0.1,0,0.2,0
			c2.2,0,4.1-0.9,5.7-1.6c0.8-0.4,1.6-0.7,2.3-0.9c-0.7,0.7-1.4,1.4-1.8,2c-0.4,0.7-0.8,1.4-1.2,2c-1.8,3.2-3.2,5.4-5.1,5.4
			c0,0,0,0,0,0c0,0,0,0,0,0c0,0-0.1,0-0.1,0c-1.9,0-3.2-2.1-5.1-5.4c-0.4-0.7-0.8-1.4-1.2-2C80.9,72.9,80.2,72.2,79.5,71.5
			 M96.6,69.4c-0.4,0-0.8,0.1-1.2,0.2C93,70.1,90.8,72,87.8,72c-0.1,0-0.1,0-0.2,0c-0.1,0-0.1,0-0.2,0c-3,0-5.2-2-7.7-2.5
			c-0.4-0.1-0.8-0.2-1.2-0.2c-0.3,0-0.7,0-1,0.1c-0.8,0.2-1.7,0.6-2.5,1.1c0,0,3.5,2.4,4.5,4c2.2,3.7,4.1,8.3,8,8.3c0,0,0,0,0.1,0
			c0,0,0.1,0,0.1,0c3.9,0,5.7-4.7,8-8.3c1-1.6,4.5-4,4.5-4c-0.8-0.5-1.7-0.9-2.5-1.1C97.3,69.4,97,69.4,96.6,69.4L96.6,69.4z"/>
	</g>
	<g>
		<path fill="#FFFFCC" d="M34.6,107.6c-3.4,0-6-1-6.9-2.6c-0.7-1.4-0.1-2.9,0.6-4c1.5-2.4,4.3-3.6,8.4-3.6c0.6,0,1.1,0,1.7,0.1
			c3.6,0.3,9,2.4,10.5,3l0.6,1.5c0,0,0.1,0.1,0.1,0.3c-4.2,3.1-9,4.9-13.5,5.3C35.6,107.6,35.1,107.6,34.6,107.6z"/>
		<path fill="#CCAE66" d="M36.7,98.5c0.5,0,1.1,0,1.6,0.1c3.2,0.2,8,2,9.8,2.8l0.3,0.6c-3.9,2.7-8.2,4.3-12.4,4.7
			c-0.5,0-1,0.1-1.5,0.1c-3,0-5.3-0.8-6-2.1c-0.5-0.9,0-2.1,0.6-3C30.4,99.5,33,98.5,36.7,98.5 M36.7,96.5c-3.8,0-7.3,1-9.3,4
			c-3.1,4.9,0.8,8.1,7.1,8.1c0.5,0,1.1,0,1.6-0.1c4.4-0.4,9.7-2.2,14.7-6c-0.3-0.6-0.4-0.9-0.4-1l-0.8-1.8c0,0-6.8-2.9-11.2-3.2
			C37.9,96.5,37.3,96.5,36.7,96.5L36.7,96.5z"/>
	</g>
	<g>
		<path fill="#FFFFCC" d="M40.9,132.8c-2.2-1.4-5.3-4.7-3.8-11.9c0.7-3.2,0.7-6.2,0.6-8.4c4.1-0.5,8.3-2,12.3-4.4
			c-0.1,7.2,0.5,17,3.1,24.7H40.9z"/>
		<path fill="#CCAE66" d="M49,109.8c0,6.6,0.6,15,2.7,22H41.2c-3-2.1-4.1-5.9-3.1-10.7c0.6-2.9,0.7-5.6,0.6-7.7
			C42.2,112.8,45.7,111.6,49,109.8 M51,106.2L51,106.2L51,106.2z M51,106.2c-4.5,3-9.5,4.9-14.4,5.3c0.2,2.2,0.3,5.5-0.5,9.1
			c-1.4,6.8,1,11.1,4.5,13.1h13.9c-3-7.7-3.6-18.2-3.5-25.8L51,106.2L51,106.2z"/>
	</g>
	<g>
		<path fill="#FFFFCC" d="M68.4,128.5c-2.7-6.5-3.3-15.8-3.4-22.2c2.8,2.8,5.9,4.2,9.1,4.2c1.6,0,3.2-0.4,4.8-1.1
			c-0.4,7.1-0.4,13.5,0.1,19H68.4z"/>
		<path fill="#CCAE66" d="M66,108.6c2.5,1.9,5.2,2.9,8,2.9c1.2,0,2.5-0.2,3.7-0.6c-0.3,6.1-0.3,11.6,0.1,16.6H69
			C66.9,121.9,66.2,114.4,66,108.6 M64,103.7c-0.1,6.7,0.4,18.3,3.7,25.8H80c-0.7-7.2-0.5-15-0.1-21.8c-1.9,1.2-3.9,1.8-5.9,1.8
			C70.4,109.5,67,107.5,64,103.7L64,103.7z M79.9,107.7L79.9,107.7L79.9,107.7z"/>
	</g>
	<g>
		<path fill="#FFFFCC" d="M64.2,109.8c-4.2,0-7.4-4.8-9-7.7c-0.3-0.5-0.5-1-0.7-1.3c0.1-0.1,0.2-0.2,0.3-0.2
			c2.5-2.1,5.2-3.2,8.3-3.2c2.8,0,5.4,0.9,7.2,1.8l-0.1,0.8l-0.1,0.5c-0.1,0.8-0.2,1.8-0.3,2.7c-0.1,1.3-0.3,2.7-0.4,4.1
			C67.7,109,65.9,109.8,64.2,109.8L64.2,109.8z"/>
		<path fill="#CCAE66" d="M63.1,98.3c2.3,0,4.5,0.7,6.1,1.4l0,0.1l-0.1,0.5c-0.1,0.8-0.2,1.8-0.3,2.7c-0.1,1.1-0.2,2.3-0.4,3.8
			c-1.5,1.2-2.9,1.9-4.3,1.9c-3.8,0-7-5-8.1-7.2c-0.1-0.2-0.2-0.4-0.3-0.6C58,99.2,60.4,98.3,63.1,98.3 M63.1,96.3
			c-2.8,0-5.9,0.9-8.9,3.4c-0.3,0.2-0.5,0.5-0.8,0.7c0,0,0.3,0.8,1,2c1.6,3,5.1,8.2,9.9,8.2c1.9,0,3.9-0.8,6.2-2.9
			c0.1-1.6,0.3-3.1,0.4-4.5c0.1-1,0.2-1.9,0.3-2.7l0.1-0.5l0.2-1.5C69.3,97.5,66.4,96.3,63.1,96.3L63.1,96.3z"/>
	</g>
	<g>
		<path fill="#FFFFCC" d="M74.3,132.8c-0.9-10-0.1-21.3,0.7-29c0.1-1.1,0.2-2.1,0.3-2.9c1.7,0.6,3.3,1.6,3.7,3.7
			c1.9,9.4,7.8,9.8,8.5,9.9c0,0,0.1,0,0.1,0c0.8,0,6.7-0.5,8.6-9.9c0.4-2,2.1-3.1,3.7-3.7l0.1,0.5c0.1,0.8,0.2,1.6,0.3,2.5
			c0.8,7.8,1.6,19,0.7,29H74.3z"/>
		<path fill="#CCAE66" d="M76.1,102.3c0.9,0.5,1.7,1.3,1.9,2.4c2,10.1,8.7,10.6,9.5,10.7l0.1,0c0,0,0,0,0,0c0,0,0,0,0,0l0.1,0
			c7.2-0.2,9.2-9.6,9.4-10.7c0.2-1.1,1-1.9,1.9-2.4c0.1,0.5,0.1,1,0.2,1.6c0.8,7.5,1.5,18.2,0.8,27.9H87.6H75.2
			c-0.8-9.7,0-20.4,0.8-27.9C76,103.3,76.1,102.8,76.1,102.3 M100.8,99.5c-1.9,0.5-4.9,1.6-5.6,4.8c-1.7,8.7-7,9-7.5,9l-0.1,0
			l-0.1,0c-0.6,0-5.8-0.4-7.5-9c-0.6-3.1-3.6-4.3-5.6-4.8c0,0.3-0.1,0.6-0.1,1c-0.1,0.9-0.2,2-0.3,3.1c-0.8,7.8-1.7,19.7-0.6,30.1
			h14.3h14.3c1.1-10.4,0.2-22.3-0.6-30.1c-0.1-1.1-0.2-2.2-0.3-3.1C100.9,100.2,100.8,99.8,100.8,99.5L100.8,99.5z"/>
	</g>
	<g>
		<path fill="#FFFFCC" d="M52.6,95.8c-1.2-0.5-2.5-0.9-3.8-1.3c-1.1-1.9-2.1-4.1-2.6-6.5l0,0c0,0,0-0.1,0-0.1
			c-0.2-0.8-0.4-1.7-0.5-2.4c-0.2-1.2,0-1.6,0.1-1.7c0.1-0.1,0.4-0.2,0.7-0.2c0.8,0,1.9,0.3,3,0.6c1.6,0.4,3.4,0.9,5.2,0.9
			c1.8,0,3.3-0.5,4.5-1.5c2.1-1.7,1.9-4.6,1.8-7c-0.1-1.5-0.2-3,0.3-3.6c0.2-0.2,0.6-0.4,1.2-0.4c0.9,0,2,0.3,3.5,0.8
			c1.2,0.4,2.3,1,3.2,1.8c3.8,3.1,4.8,8.6,4.9,12.9c-1.1,1.1-2.1,2.4-2.8,3.7c-0.3,0.5-0.6,1.1-0.9,1.8c-2.5-1-5-1.5-7.4-1.5
			C59.3,92.3,55.7,93.5,52.6,95.8z"/>
		<path fill="#CCAE66" d="M62.6,73.8c0.5,0,1.5,0.1,3.2,0.7c1.1,0.4,2.1,0.9,2.9,1.6c3.4,2.8,4.4,7.7,4.6,11.7
			c-1.1,1.1-2,2.3-2.7,3.6c-0.2,0.3-0.4,0.7-0.6,1.1c-2.3-0.8-4.6-1.2-6.9-1.2c-3.8,0-7.4,1.1-10.6,3.4c-1-0.4-2-0.7-2.9-1
			c-1-1.7-1.8-3.8-2.3-5.9l0,0c0,0,0-0.1,0-0.1c-0.2-0.8-0.3-1.6-0.4-2.3c0-0.3-0.1-0.6-0.1-0.7c0.6,0,1.6,0.3,2.6,0.6
			c1.7,0.4,3.5,0.9,5.5,0.9c2,0,3.7-0.6,5.1-1.7c2.5-2.1,2.3-5.4,2.2-7.8c-0.1-0.9-0.1-2.4,0.1-2.8C62.1,73.9,62.3,73.8,62.6,73.8
			C62.6,73.8,62.6,73.8,62.6,73.8 M62.6,71.8c-5.4,0-0.3,8.1-4,11.1c-1.1,0.9-2.5,1.2-3.8,1.2c-3,0-6.3-1.5-8.3-1.5
			c-1.4,0-2.1,0.7-1.8,3c0.1,0.9,0.3,1.7,0.5,2.6c0,0,0,0,0,0c0.7,2.6,1.7,5.1,3,7.1c1.8,0.6,3.4,1.1,4.6,1.6
			c3.1-2.4,6.6-3.6,10.3-3.6c3.1,0,5.9,0.8,8,1.8c0.3-0.9,0.8-1.8,1.2-2.6c0.9-1.5,1.9-2.8,3-3.8c-0.1-4.4-1.1-10.6-5.3-14
			c-1-0.8-2.2-1.5-3.6-2C64.8,72.1,63.5,71.8,62.6,71.8L62.6,71.8z"/>
	</g>
	<g>
		<path fill="#FFFFCC" d="M42.4,93c-1.3-0.2-2.5-0.4-3.6-0.5c-0.1,0-0.1,0-0.2,0c-1.3-4.4-4.5-11.4-11.9-14.5
			C18,74.3,7.8,64.9,6.1,53c-1.2-8.5,2.5-16.6,10.7-23.3h2.9c-8.2,7.2-9.6,14.7-9.2,19.9c0.6,8.2,6.1,16.3,14,20.7
			c4.1,2.3,7,4.1,8.2,5.1c1.7,1.4,3.4,3.1,5.1,5c0.9,1,1.9,2.1,2.8,3.3c-0.2,1.2,0,2.2,0,2.6c0.1,1,0.3,2,0.6,3l0.2,0.8
			c0,0.1,0.1,0.2,0.1,0.3C41.7,91.2,42,92.1,42.4,93z"/>
		<path fill="#CCAE66" d="M17,30.8c-6.7,6.9-7.9,13.8-7.5,18.8c0.6,8.5,6.3,16.9,14.5,21.5c4,2.2,6.9,4,8,5c1.7,1.4,3.3,3,5,4.9
			c0.8,0.9,1.7,1.9,2.5,2.9c-0.1,1.1,0,2.1,0.1,2.5c0.1,1,0.3,2,0.6,3l0.2,0.8c0,0.1,0.1,0.2,0.1,0.4c0.1,0.4,0.2,0.7,0.3,1.1
			c-0.5-0.1-1-0.1-1.5-0.2c-1.5-4.6-4.9-11.4-12.2-14.5c-8.8-3.7-18.5-13.2-20-24.2C6,44.8,9.4,37.2,17,30.8 M22.5,28.7L22.5,28.7
			L22.5,28.7z M22.5,28.7h-6c-23.3,18.8-6.8,43.2,9.9,50.2c7.4,3.1,10.4,10.4,11.5,14.6c0.3,0,0.6,0,0.9,0c1.8,0.1,3.6,0.4,5.4,0.8
			c-0.7-1.4-1.2-2.9-1.7-4.5l0,0L42.2,89c-0.2-1-0.4-1.9-0.6-2.9c-0.1-0.5-0.2-1.6,0-2.8c-0.9-1.2-1.9-2.4-3.1-3.7
			c-1.5-1.7-3.3-3.4-5.2-5c-1.8-1.5-6.4-4.1-8.4-5.2C11.9,62.1,3.6,43,22.5,28.7L22.5,28.7z"/>
	</g>
	<g>
		<path fill="#FFFFCC" d="M97.5,38.4C91.8,38.4,87.6,29,86,24h22.8C107.6,27.8,103.6,38.4,97.5,38.4z"/>
		<path fill="#CCAE66" d="M107.5,25c-1.7,4.8-5.5,12.4-10,12.4c-4.5,0-8.3-7.6-10-12.4h10H107.5 M110.2,23L110.2,23L110.2,23z
			 M110.2,23H97.5H84.7c0,0,4.5,16.4,12.8,16.4C105.7,39.4,110.2,23,110.2,23L110.2,23z"/>
	</g>
	<g>
		<path fill="#FFFFCC" d="M69.7,71.4c-0.8-0.4-1.6-0.8-2.5-1.1c-0.6-0.2-1.2-0.4-1.7-0.5c1.7-2.5,3.1-5.2,4.1-8.3
			c0.6,0.4,1.3,0.5,2,0.5c1.4,0,2.8-0.7,4-1.3c1-0.5,1.9-1,2.7-1c0.1,0,0.2,0,0.3,0c0.9,0.2,2.3,1.6,2.9,3.5c0.3,0.9,0.6,2.6-0.5,4
			c-0.2-0.1-0.4-0.1-0.6-0.2c-0.6-0.1-1.2-0.2-1.8-0.2c-0.5,0-1,0.1-1.6,0.2c-1,0.2-2.1,0.7-3.3,1.4C72.2,69.3,70.8,70.4,69.7,71.4z
			"/>
		<path fill="#CCAE66" d="M78.3,60.7C78.4,60.7,78.4,60.7,78.3,60.7c0.5,0.1,1.6,1.1,2.2,2.8c0.2,0.7,0.4,1.7,0,2.6
			c-0.6-0.1-1.3-0.2-1.9-0.2c-0.6,0-1.2,0.1-1.8,0.2c-1.1,0.2-2.3,0.8-3.6,1.5c-1.3,0.8-2.6,1.7-3.6,2.6c-0.6-0.3-1.3-0.6-2-0.9
			c-0.2,0-0.3-0.1-0.4-0.1c1.2-2,2.2-4.1,3.1-6.4c0.5,0.1,0.9,0.2,1.4,0.2c1.7,0,3.2-0.8,4.5-1.4C77,61.2,77.9,60.7,78.3,60.7
			L78.3,60.7 M78.3,58.7c-2,0-4.4,2.3-6.7,2.3c-0.9,0-1.7-0.3-2.6-1.3c-1.2,4.3-3.1,7.8-5.3,10.7c0.9,0.1,1.9,0.4,3.1,0.8
			c1,0.4,2,0.8,2.9,1.4c1-0.9,2.6-2.3,4.4-3.3c1.1-0.6,2.1-1.1,3-1.3c0.4-0.1,0.9-0.1,1.3-0.1c0.5,0,1.1,0.1,1.6,0.2
			c0.4,0.1,0.8,0.2,1.1,0.3c3.4-3.5,0.1-9.1-2.5-9.6C78.6,58.7,78.5,58.7,78.3,58.7L78.3,58.7z"/>
	</g>
	<g>
		<path fill="#FFFFCC" d="M71.1,54.4c0.2-1.1,0.3-2.1,0.4-3.2c0.4,0.2,0.8,0.3,1.3,0.4c0.1,0,0.1,0,0.2,0c1.7,0,2.1-1.5,2.3-2.3
			c0.1-0.3,0.2-0.8,0.3-0.9c0.2,0,0.6,0.1,1.7,0.8c1.5,0.9,2.1,2.4,1.9,4.2c-0.3,0-0.5,0-0.8,0c-2,0-3.6,0.8-5,1.5
			c-0.3,0.1-0.9,0.5-1.4,0.6L71.1,54.4z"/>
		<path fill="#CCAE66" d="M76.2,49.7c0.1,0.1,0.3,0.2,0.5,0.3c0.6,0.4,1.3,1,1.4,2.3c-2.1,0-3.9,0.9-5.3,1.6
			c-0.1,0.1-0.4,0.2-0.6,0.3l-0.2-0.2c0.1-0.5,0.2-1,0.2-1.6c0.1,0,0.2,0,0.3,0c0.1,0,0.2,0,0.3,0C75.2,52.6,75.9,50.6,76.2,49.7
			 M75.6,47.4c-1.7,0-0.9,3.2-2.6,3.2c0,0-0.1,0-0.1,0c-1.2-0.1-1.7-0.8-2.2-1.7c-0.1,1.8-0.3,3.6-0.6,5.5c0,0.1,0,0.2-0.1,0.3
			l1.5,1.7c0.1,0.1,0.2,0.2,0.2,0.2c0.4,0,1.4-0.5,2.1-0.9c1.3-0.7,2.8-1.4,4.6-1.4c0.4,0,0.7,0,1.1,0.1c0.2,0,0.4,0.1,0.5,0.2
			c0.5-2,0.5-4.6-2.1-6.3C76.8,47.7,76.1,47.4,75.6,47.4L75.6,47.4z"/>
	</g>
	<g>
		<path fill="#FFFFCC" d="M81.6,38.7c0.4-0.5,0.6-1.2,0.7-1.6c0.2-1.1,0.3-1.3,1-1.3c0.1,0,0.2,0,0.4,0c1.6,0.2,2.4,1.7,2.8,3.4
			c-0.3-0.1-0.6-0.1-0.9-0.1c-1.1,0-2.2,0.3-3,0.9L81.6,38.7z"/>
		<path fill="#CCAE66" d="M83.3,36.8c0,0,0.1,0,0.1,0c0.7,0.1,1.2,0.6,1.5,1.3c-0.8,0-1.5,0.2-2.2,0.5c0.3-0.6,0.4-1.1,0.4-1.5
			C83.2,37.1,83.3,37,83.3,36.8 M83.2,34.8c-2.7,0-1.3,3.4-2.8,3.4c-0.1,0-0.2,0-0.3,0c0,0,0,0,0,0.1l2.1,3.4c0.8-1,1.9-1.5,3.2-1.5
			c0.7,0,1.4,0.2,2.2,0.5c-0.2-2.5-1.1-5.5-3.9-5.8C83.5,34.8,83.4,34.8,83.2,34.8L83.2,34.8z"/>
	</g>
	<g>
		<path fill="#FFFFCC" d="M40.5,78.1c10.3-1.5,25.3-7.1,24.3-26.3c-0.5-9.1-6.7-18.7-16.6-22.1h7.9c0.7,0.3,3,1.7,5.3,4.3
			c1.9,2.3,3.3,4.9,4.2,7.8c0.6,1.9,0.9,4,0.9,6.1c0.1,2.3-0.1,4.7-0.6,7.3c-3.4,18.8-18.3,22.6-25.1,23.4
			C40.7,78.4,40.6,78.2,40.5,78.1z M32.9,71c-1.3-1-2.6-1.9-3.9-2.6C22.7,65,15.7,57.1,15,48.1c-0.5-6.6,2.6-12.6,9-17.5l1.3-1h6.9
			c-8.5,2.7-12.7,9.5-13.8,15.5c-1.4,8,2,17.8,13.1,21.8c2.6,0.9,5.2,1.4,7.6,1.4c6.4,0,11.9-3.3,14.9-8.8c3.8-7,2.2-14.9-3.8-18.8
			c-2.6-1.7-5.2-2.5-7.9-2.5c-3.6,0-7.1,1.7-9.3,4.5c-1.7,2.2-2.4,4.7-2.1,7.1c0.3,2.1,1.4,4,3.1,5.3c1.7,1.3,3.5,2,5.3,2
			c0.6,0,1.3-0.1,1.9-0.3c4.5-1.2,5.5-5.7,5.5-6.5c0-1-0.2-2.3-1-3.1c-0.4-0.4-1-0.7-1.6-0.7c-0.7,0-1.5,0.3-2.4,0.9
			c-0.5,0.4-0.9,1-1.3,1.7c-0.3,0.5-0.8,1.4-1.1,1.4c0,0,0,0,0,0c-0.2,0-0.6-0.1-1.2-0.6c-0.3-0.3-0.5-0.6-0.6-1
			c-0.1-0.7,0.2-1.6,0.8-2.3c0.9-1.2,2.3-1.9,3.9-1.9c1.3,0,2.7,0.5,4.1,1.4c3.5,2.3,3.4,6.9,1.6,10.3c-0.9,1.6-3.4,5.3-9,5.3
			c-1.7,0-3.4-0.3-5.3-1c-7.4-2.6-9.7-9.2-8.8-14.5c0.9-5.1,5.5-11.2,15.2-11.3c0.1,0,0.2,0,0.2,0c10,0,17.2,8.9,17.6,17.2
			C58.5,59.7,50.8,68.8,32.9,71z"/>
		<path fill="#CCAE66" d="M55.9,30.7c0.8,0.4,2.8,1.7,4.7,4c1.8,2.1,3.2,4.6,4,7.4c0.5,1.8,0.8,3.8,0.9,5.8c0,0.4,0,0.8,0,1.2
			c-1.2-7.2-5.8-14.4-12.7-18.5H55.9 M27.5,30.7c-6,3.5-9.1,9.2-10,14.3c-0.7,4-0.3,8.5,1.7,12.5c-1.7-2.8-2.9-6-3.1-9.4
			c-0.5-6.2,2.5-12,8.7-16.6l1-0.8H27.5 M40.5,35.9C40.5,35.9,40.5,35.9,40.5,35.9c4.5,0,8.4,1.9,11.3,4.7c-0.3-0.2-0.6-0.5-1-0.7
			c-2.7-1.8-5.6-2.7-8.4-2.7c-3.9,0-7.7,1.8-10.1,4.9c-1.8,2.4-2.6,5.2-2.3,7.8c0.3,2.4,1.6,4.5,3.5,5.9c1.9,1.4,3.9,2.2,5.9,2.2
			c0.7,0,1.5-0.1,2.2-0.3c4.8-1.3,6.3-5.9,6.3-7.4c0-0.4,0-0.7-0.1-1.2c0.9,2.1,0.6,4.7-0.6,6.8c-0.8,1.4-3.1,4.7-8.1,4.7
			c-1.5,0-3.2-0.3-4.9-0.9c-6.8-2.4-9-8.5-8.1-13.4c0.3-1.5,1.2-4.5,3.9-6.9c2.6-2.3,6.1-3.5,10.3-3.6
			C40.3,35.9,40.4,35.9,40.5,35.9C40.4,35.9,40.4,35.9,40.5,35.9 M42.4,45.8c0.2,0,0.4,0,0.6,0c-0.5,0.2-1,0.4-1.5,0.8
			c-0.7,0.5-1.2,1.3-1.6,2c-0.1,0.2-0.3,0.6-0.5,0.8c-0.1-0.1-0.2-0.1-0.4-0.3c-0.1-0.1-0.2-0.2-0.2-0.3c0-0.3,0.1-1,0.6-1.6
			C39.6,46.8,40.6,45.8,42.4,45.8 M57.1,51.3c0,0.3,0.1,0.6,0.1,0.9c0.1,1.5-0.2,3.1-0.9,4.7C56.9,55,57.1,53.1,57.1,51.3
			 M26.2,65.4c1.5,0.9,3.1,1.8,5,2.4c2.1,0.8,4.2,1.2,6.3,1.4c-1.4,0.3-2.8,0.5-4.3,0.7c-1.3-0.9-2.5-1.7-3.7-2.4
			C28.4,67,27.3,66.2,26.2,65.4 M56.4,28.7H40.2H25l-1.6,1.2c-6.7,5.1-10,11.4-9.4,18.4c0.7,9.3,8,17.5,14.5,21.1
			c1.4,0.8,2.7,1.7,4.1,2.7c18.3-2.1,27-11.5,26.5-20c-0.4-8.8-8-18.1-18.6-18.1c-0.1,0-0.2,0-0.3,0c-10.4,0.1-15.2,6.6-16.2,12.2
			c-1,5.7,1.5,12.8,9.4,15.6c2,0.7,3.9,1.1,5.6,1.1c4.9,0,8.2-2.7,9.9-5.8c2.1-3.8,2-9-1.9-11.6c-1.7-1.1-3.3-1.6-4.7-1.6
			c-2.1,0-3.7,1-4.7,2.3c-1.1,1.4-1.6,3.5,0,4.7c0.7,0.5,1.3,0.8,1.8,0.8c0.1,0,0.2,0,0.3,0c1.2-0.3,1.9-2.7,2.7-3.3
			c0.8-0.5,1.3-0.7,1.8-0.7c1.4,0,1.6,1.9,1.6,2.8c0,0.5-0.9,4.4-4.8,5.5c-0.5,0.1-1,0.2-1.7,0.2c-1.3,0-2.9-0.4-4.7-1.8
			c-3.4-2.6-3.7-7.2-0.8-10.9c1.8-2.4,4.9-4.1,8.5-4.1c2.3,0,4.8,0.7,7.3,2.4c5.5,3.6,7,11,3.5,17.5c-2.3,4.2-7.1,8.2-14,8.2
			c-2.2,0-4.7-0.4-7.3-1.4c-10.5-3.7-13.8-13.1-12.4-20.6c1.3-7.2,7.5-15.7,20.8-15.9c0.1,0,0.2,0,0.3,0c13.7,0,22.7,11.6,23.3,22.4
			c0.5,10.6-3.9,23.1-25.4,25.5c0.4,0.4,0.8,0.9,1.2,1.3c0.3,0.3,0.5,0.6,0.8,0.9c5.8-0.5,22.8-3.9,26.5-24.3
			c0.5-2.7,0.7-5.2,0.6-7.5c-0.1-2.4-0.4-4.4-1-6.3c-1-3.5-2.7-6.2-4.4-8.2C59.3,30,56.4,28.7,56.4,28.7L56.4,28.7z"/>
	</g>
	<g>
		<rect x="1.3" y="1" fill="#FFFFCC" width="177" height="10.5"/>
		<path fill="#CCAE66" d="M177.3,2v8.5H2.3V2H177.3 M179.3,0H0.3v12.5h179V0L179.3,0z"/>
	</g>
	<g>
		<rect x="10.4" y="12.5" fill="#FFFFCC" width="159.8" height="4.8"/>
		<path fill="#CCAE66" d="M169.2,13.5v2.8H11.4v-2.8H169.2 M171.2,11.5H9.4v6.8h161.8V11.5L171.2,11.5z"/>
	</g>
	<g>
		<rect x="18" y="18.3" fill="#FFFFCC" width="142.4" height="8.6"/>
		<path fill="#CCAE66" d="M159.4,19.3V26H19v-6.6H159.4 M161.4,17.3H17V28h144.4V17.3L161.4,17.3z"/>
	</g>
	<g>
		<path fill="#FFFFCC" d="M37.9,163.1c-1.7,0-3-1.4-3-3s1.4-3,3-3H136c1.7,0,3,1.4,3,3s-1.4,3-3,3H37.9z"/>
		<path fill="#CCAE66" d="M136,158.1c1.1,0,2,0.9,2,2s-0.9,2-2,2H37.9c-1.1,0-2-0.9-2-2s0.9-2,2-2H136 M136,156.1H37.9
			c-2.2,0-4,1.8-4,4v0c0,2.2,1.8,4,4,4H136c2.2,0,4-1.8,4-4v0C140.1,157.9,138.3,156.1,136,156.1L136,156.1z"/>
	</g>
	<g>
		<g>
			<path fill="#FFFFCC" d="M85.3,68.4V58.3c0-0.3-0.1-0.5-0.3-0.7l-5.9-5.8c0.2-0.1,0.4-0.3,0.6-0.5c1.6-1.6,2.3-4.6,2.2-8.9
				c-0.2-5.1-5.1-9.1-8.7-12.1c-1.5-1.2-3.9-3.2-3.8-3.8c0,0,0.1-0.2,0.9-0.5c6.2-2.3,5.7-10.3,5.3-13.2c5.5-1.2,9.9-6.7,11.1-8.3
				c1.2,1.7,5.3,7.1,10.5,8.3c-0.4,2.9-0.9,10.8,5,13.2c0.6,0.3,0.8,0.5,0.8,0.5c0.1,0.6-2.1,2.6-3.6,3.8c-3.4,3-8.1,7-8.2,12
				c-0.1,4.3,0.6,7.3,2.2,8.9c0.2,0.2,0.3,0.3,0.5,0.5l-5.6,5.9c-0.2,0.2-0.3,0.4-0.3,0.7v10.1H85.3z"/>
			<path fill="#CCAE66" d="M86.8,6.1c1.7,2.2,5.2,6,9.4,7.4c-0.3,3.5-0.3,10.9,5.6,13.3c-0.6,0.7-1.9,1.9-2.9,2.7
				c-3.5,3.1-8.4,7.3-8.6,12.8c-0.1,4.4,0.6,7.6,2.2,9.5l-4.9,5.1c-0.4,0.4-0.6,0.9-0.6,1.4v9.1h-0.8v-9.1c0-0.5-0.2-1-0.6-1.4
				l-5.1-5.1c1.7-1.9,2.5-5,2.4-9.5c-0.2-5.5-5.3-9.7-9.1-12.8c-1-0.9-2.4-1.9-3.1-2.7c6.2-2.4,6.3-9.7,5.9-13.3
				C81.3,12.2,85,8.3,86.8,6.1 M87.3,3.4h-1c0,0-5.3,7.8-11.8,8.5c0,0,2.2,10.5-4.5,13c-6.7,2.5,10.7,8.4,11,17.4c0.3,9-3.6,9-3.6,9
				l7,6.9v11.1h0.3h4.5h0V58.3l6.6-6.9c0,0-3.6,0-3.4-9c0.3-9,16.7-14.8,10.3-17.4c-6.4-2.5-4.2-13-4.2-13
				C92.3,11.2,87.3,3.4,87.3,3.4L87.3,3.4z"/>
		</g>
		
			<line fill="none" stroke="#CCAE66" stroke-width="2" stroke-linecap="round" stroke-linejoin="round" stroke-miterlimit="10" x1="86.9" y1="3.4" x2="86.9" y2="68.3"/>
	</g>
	<g>
		<g>
			<path fill="#FFFFCC" d="M41.4,158.2c-0.8-0.2-7-1.6-7-5.4c0-0.9,0.1-2.4,0.3-4c0.6-5.5,1.4-13-1.5-16.6h16.7
				c-2.8,3.6-2.1,11.1-1.5,16.6c0.2,1.7,0.3,3.1,0.3,4c0,3.8-6.1,5.2-6.9,5.4H41.4z"/>
			<path fill="#CCAE66" d="M48.1,133.2c-1.9,4.2-1.2,10.7-0.7,15.7c0.2,1.6,0.3,3,0.3,3.9c0,2.6-4.3,4-6,4.4h-0.1
				c-1-0.2-6.1-1.6-6.1-4.4c0-0.9,0.1-2.3,0.3-3.9c0.5-5,1.2-11.5-0.7-15.7H48.1 M55,131.2L55,131.2L55,131.2z M55,131.2h-0.8H28.9
				h-0.5l3.8,1.3c3.9,4,1.3,16.2,1.3,20.3c0,4.9,7.9,6.4,7.9,6.4h0.5c0,0,7.8-1.5,7.8-6.4c0-4.1-2.6-16.2,1.2-20.2L55,131.2
				L55,131.2z"/>
		</g>
		<g>
			<path fill="#FFFFCC" d="M52.9,158.2c-0.8-0.2-7-1.6-7-5.4c0-0.9,0.1-2.4,0.3-4c0.6-5.5,1.4-13-1.5-16.6h16.7
				c-2.8,3.6-2.1,11.1-1.5,16.6c0.2,1.7,0.3,3.1,0.3,4c0,3.8-6.1,5.2-6.9,5.4H52.9z"/>
			<path fill="#CCAE66" d="M59.6,133.2c-1.9,4.2-1.2,10.7-0.7,15.7c0.2,1.6,0.3,3,0.3,3.9c0,2.6-4.3,4-6,4.4H53
				c-1.8-0.4-6.1-1.9-6.1-4.4c0-0.9,0.1-2.3,0.3-3.9c0.5-5,1.2-11.5-0.7-15.7H59.6 M66.5,131.2L66.5,131.2L66.5,131.2z M66.5,131.2
				h-0.8H40.4h-0.5l3.8,1.3c3.9,4,1.3,16.2,1.3,20.3c0,4.9,7.9,6.4,7.9,6.4h0.5c0,0,7.8-1.5,7.8-6.4c0-4.1-2.6-16.2,1.2-20.2
				L66.5,131.2L66.5,131.2z"/>
		</g>
		<g>
			<path fill="#FFFFCC" d="M64.4,158.2c-0.8-0.2-7-1.6-7-5.4c0-0.9,0.1-2.4,0.3-4c0.6-5.5,1.4-13-1.5-16.6h16.7
				c-2.8,3.6-2.1,11.1-1.5,16.6c0.2,1.7,0.3,3.1,0.3,4c0,3.7-6.2,5.2-6.9,5.4H64.4z"/>
			<path fill="#CCAE66" d="M71.1,133.2c-1.9,4.2-1.2,10.7-0.7,15.7c0.2,1.6,0.3,3,0.3,3.9c0,2.6-4.3,4-6,4.4h-0.1
				c-1.8-0.4-6.1-1.9-6.1-4.4c0-0.9,0.1-2.3,0.3-3.9c0.5-5,1.2-11.5-0.7-15.7H71.1 M77.9,131.2L77.9,131.2L77.9,131.2z M77.9,131.2
				h-0.8H51.8h-0.5l3.8,1.3c3.9,4,1.3,16.2,1.3,20.3c0,4.9,7.9,6.4,7.9,6.4h0.5c0,0,7.8-1.5,7.8-6.4c0-4.1-2.6-16.2,1.2-20.2
				L77.9,131.2L77.9,131.2z"/>
		</g>
		<g>
			<path fill="#FFFFCC" d="M75.9,158.2c-0.8-0.2-7-1.6-7-5.4c0-0.9,0.1-2.4,0.3-4c0.6-5.5,1.4-13-1.5-16.6h16.7
				c-2.8,3.6-2.1,11.1-1.5,16.6c0.2,1.7,0.3,3.1,0.3,4c0,3.8-6.1,5.2-6.9,5.4H75.9z"/>
			<path fill="#CCAE66" d="M82.5,133.2c-1.9,4.2-1.2,10.7-0.7,15.7c0.2,1.6,0.3,3,0.3,3.9c0,2.6-4.3,4-6,4.4H76
				c-1.8-0.4-6.1-1.9-6.1-4.4c0-0.9,0.1-2.3,0.3-3.9c0.5-5,1.2-11.5-0.7-15.7H82.5 M89.4,131.2L89.4,131.2L89.4,131.2z M89.4,131.2
				h-0.8H63.3h-0.5l3.8,1.3c3.9,4,1.3,16.2,1.3,20.3c0,4.9,7.9,6.4,7.9,6.4h0.5c0,0,7.8-1.5,7.8-6.4c0-4.1-2.6-16.2,1.2-20.2
				L89.4,131.2L89.4,131.2z"/>
		</g>
		<g>
			<path fill="#FFFFCC" d="M132.9,158.2c-0.8-0.2-7-1.6-7-5.4c0-0.9,0.1-2.4,0.3-4c0.6-5.5,1.4-13-1.5-16.6h16.8
				c-2.9,3.6-2.1,11.1-1.5,16.6c0.2,1.7,0.3,3.1,0.3,4c0,3.8-6.3,5.3-7.1,5.4H132.9z"/>
			<path fill="#CCAE66" d="M139.8,133.2c-2,4.2-1.3,10.7-0.7,15.7c0.2,1.6,0.3,3,0.3,3.9c0,2.6-4.4,4-6.2,4.4H133
				c-1.8-0.4-6.1-1.9-6.1-4.4c0-0.9,0.1-2.3,0.3-3.9c0.5-5,1.2-11.5-0.7-15.7H139.8 M146.5,131.2h-0.6h-25.5h-0.8l4.1,1.4
				c3.8,4.1,1.2,16.2,1.2,20.2c0,4.9,7.9,6.4,7.9,6.4h0.5c0,0,8-1.5,8-6.4c0-4.1-2.7-16.3,1.3-20.3L146.5,131.2L146.5,131.2z"/>
		</g>
		<g>
			<path fill="#FFFFCC" d="M121.3,158.2c-0.8-0.2-7-1.6-7-5.4c0-0.9,0.1-2.4,0.3-4c0.6-5.5,1.4-13-1.5-16.6H130
				c-2.9,3.6-2.1,11.1-1.5,16.6c0.2,1.7,0.3,3.1,0.3,4c0,3.8-6.3,5.3-7.1,5.4H121.3z"/>
			<path fill="#CCAE66" d="M128.2,133.2c-2,4.2-1.3,10.7-0.7,15.7c0.2,1.6,0.3,3,0.3,3.9c0,2.6-4.4,4-6.2,4.4h-0.1
				c-1-0.2-6.1-1.6-6.1-4.4c0-0.9,0.1-2.3,0.3-3.9c0.5-5,1.2-11.5-0.7-15.7H128.2 M134.9,131.2h-0.6h-25.5H108l4.1,1.4
				c3.8,4.1,1.2,16.2,1.2,20.2c0,4.9,7.9,6.4,7.9,6.4h0.5c0,0,8-1.5,8-6.4c0-4.1-2.7-16.3,1.3-20.3L134.9,131.2L134.9,131.2z"/>
		</g>
		<g>
			<path fill="#FFFFCC" d="M109.8,158.2c-0.8-0.2-7-1.6-7-5.4c0-0.9,0.1-2.4,0.3-4c0.6-5.5,1.4-13-1.5-16.6h16.8
				c-2.9,3.6-2.1,11.1-1.5,16.6c0.2,1.7,0.3,3.1,0.3,4c0,3.7-6.3,5.2-7.1,5.4H109.8z"/>
			<path fill="#CCAE66" d="M116.6,133.2c-2,4.2-1.3,10.7-0.7,15.7c0.2,1.6,0.3,3,0.3,3.9c0,2.6-4.4,4-6.2,4.4h-0.1
				c-1-0.2-6.1-1.6-6.1-4.4c0-0.9,0.1-2.3,0.3-3.9c0.5-5,1.2-11.5-0.7-15.7H116.6 M123.3,131.2h-0.6H97.2h-0.8l4.1,1.4
				c3.8,4.1,1.2,16.2,1.2,20.2c0,4.9,7.9,6.4,7.9,6.4h0.5c0,0,8-1.5,8-6.4c0-4.1-2.7-16.3,1.3-20.3L123.3,131.2L123.3,131.2z"/>
		</g>
		<g>
			<path fill="#FFFFCC" d="M98.2,158.2c-0.8-0.2-7-1.6-7-5.4c0-0.9,0.1-2.4,0.3-4c0.6-5.5,1.4-13-1.5-16.6h16.8
				c-2.9,3.6-2.1,11.1-1.5,16.6c0.2,1.7,0.3,3.1,0.3,4c0,3.8-6.3,5.3-7.1,5.4H98.2z"/>
			<path fill="#CCAE66" d="M105,133.2c-2,4.2-1.3,10.7-0.7,15.7c0.2,1.6,0.3,3,0.3,3.9c0,2.6-4.4,4-6.2,4.4h-0.1
				c-1-0.2-6.1-1.6-6.1-4.4c0-0.9,0.1-2.3,0.3-3.9c0.5-5,1.2-11.5-0.7-15.7H105 M111.7,131.2h-0.6H85.7h-0.8l4.1,1.4
				c3.8,4.1,1.2,16.2,1.2,20.2c0,4.9,7.9,6.4,7.9,6.4h0.5c0,0,8-1.5,8-6.4c0-4.1-2.7-16.3,1.3-20.3L111.7,131.2L111.7,131.2z"/>
		</g>
		<g>
			<path fill="#FFFFCC" d="M87.3,158.2c-0.8-0.2-7-1.6-7-5.4c0-0.9,0.1-2.4,0.3-4c0.6-5.5,1.4-13-1.5-16.6h16.7
				c-2.8,3.6-2.1,11.1-1.5,16.6c0.2,1.7,0.3,3.1,0.3,4c0,3.8-6.1,5.2-6.9,5.4H87.3z"/>
			<path fill="#CCAE66" d="M94,133.2c-1.9,4.2-1.2,10.7-0.7,15.7c0.2,1.6,0.3,3,0.3,3.9c0,2.6-4.3,4-6,4.4h-0.1
				c-1.8-0.4-6.1-1.9-6.1-4.4c0-0.9,0.1-2.3,0.3-3.9c0.5-5,1.2-11.5-0.7-15.7H94 M100.9,131.2L100.9,131.2L100.9,131.2z
				 M100.9,131.2h-0.8H74.8h-0.5l3.8,1.3c3.9,4,1.3,16.2,1.3,20.3c0,4.9,7.9,6.4,7.9,6.4h0.5c0,0,7.8-1.5,7.8-6.4
				c0-4.1-2.6-16.2,1.2-20.2L100.9,131.2L100.9,131.2z"/>
		</g>
	</g>
</g>
</svg>
