<?xml version="1.0" encoding="utf-8"?>
<!-- Generator: Adobe Illustrator 18.1.1, SVG Export Plug-In . SVG Version: 6.00 Build 0)  -->
<svg version="1.1" id="Layer_1" xmlns="http://www.w3.org/2000/svg" xmlns:xlink="http://www.w3.org/1999/xlink" x="0px" y="0px"
	 viewBox="0 0 600 200" enable-background="new 0 0 600 200" xml:space="preserve" preserveAspectRatio="none">
<g>
	<g>
		<polygon fill="#FFFFCC" points="4.9,153.2 300.1,0.7 597.4,153.2 		"/>
		<path fill="#CCAE66" d="M300.1,1.8l293.1,150.5H9L300.1,1.8 M300.1-0.5L0.7,154.2h600.8L300.1-0.5L300.1-0.5z"/>
	</g>
	<g>
		<polygon fill="#FFFFCC" points="29.7,147.2 300.2,7.4 572.5,147.2 		"/>
		<path fill="#CCAE66" d="M300.2,8.6l268.2,137.7H33.8L300.2,8.6 M300.2,6.3L25.6,148.2h551L300.2,6.3L300.2,6.3z"/>
	</g>
	<g>
		<polygon fill="#FFFFCC" points="100.5,147.2 300.4,43.9 501.8,147.2 		"/>
		<path fill="#CCAE66" d="M300.4,45l197.2,101.2h-393L300.4,45 M300.4,42.8L96.4,148.2h409.5L300.4,42.8L300.4,42.8z"/>
	</g>
	<g>
		<polygon fill="#FFFFCC" points="155.1,147.2 300.6,72 447.2,147.2 		"/>
		<path fill="#CCAE66" d="M300.6,73.1L443,146.2H159.2L300.6,73.1 M300.6,70.9l-149.7,77.4h300.4L300.6,70.9L300.6,70.9z"/>
	</g>
	<g>
		<path fill="#FFFFCC" d="M301.1,148.4c-26.7,0-48.5-21.8-48.5-48.5s21.8-48.5,48.5-48.5c26.7,0,48.5,21.8,48.5,48.5
			S327.9,148.4,301.1,148.4z M301.1,78.8c-11.6,0-21.1,9.5-21.1,21.1s9.5,21.1,21.1,21.1c11.6,0,21.1-9.5,21.1-21.1
			S312.8,78.8,301.1,78.8z"/>
		<path fill="#CCAE66" d="M301.1,52.4c26.2,0,47.5,21.3,47.5,47.5c0,26.2-21.3,47.5-47.5,47.5s-47.5-21.3-47.5-47.5
			C253.6,73.7,274.9,52.4,301.1,52.4 M301.1,122c12.2,0,22.1-9.9,22.1-22.1s-9.9-22.1-22.1-22.1S279,87.7,279,99.9
			S288.9,122,301.1,122 M301.1,50.4c-27.3,0-49.5,22.2-49.5,49.5s22.2,49.5,49.5,49.5c27.3,0,49.5-22.2,49.5-49.5
			S328.5,50.4,301.1,50.4L301.1,50.4z M301.1,120c-11.1,0-20.1-9-20.1-20.1c0-11.1,9-20.1,20.1-20.1c11.1,0,20.1,9,20.1,20.1
			C321.2,111,312.2,120,301.1,120L301.1,120z"/>
	</g>
	<g>
		<rect x="13.3" y="155.2" fill="#FFFFCC" width="575.7" height="33.2"/>
		<path fill="#CCAE66" d="M588,156.2v31.2H14.3v-31.2H588 M590,154.2H12.3v35.2H590V154.2L590,154.2z"/>
	</g>
	<g>
		<rect x="26.6" y="190.4" fill="#FFFFCC" width="549" height="9.1"/>
		<path fill="#CCAE66" d="M574.6,191.4v7.1h-547v-7.1H574.6 M576.6,189.4h-551v11.1h551V189.4L576.6,189.4z"/>
	</g>
</g>
</svg>
