<?xml version="1.0" encoding="utf-8"?>
<!-- Generator: Adobe Illustrator 18.1.1, SVG Export Plug-In . SVG Version: 6.00 Build 0)  -->
<svg version="1.1" id="Layer_1" xmlns="http://www.w3.org/2000/svg" xmlns:xlink="http://www.w3.org/1999/xlink" x="0px" y="0px"
	 viewBox="0 0 178.4 67.4" enable-background="new 0 0 178.4 67.4" xml:space="preserve" preserveAspectRatio="none">
<g>
	<g>
		<polygon fill="#FFFFCC" points="1.6,66.4 32.9,1 145.5,1 176.9,66.4 		"/>
		<path fill="#CCAE66" d="M144.9,2l30.4,63.4H3.2L33.6,2H144.9 M146.1,0H32.3L0,67.4h178.4L146.1,0L146.1,0z"/>
	</g>
	<g>
		<path fill="#FFFFCC" d="M27.3,10.1C25.6,8,25,6.2,25.5,4.8c0.9-2.4,5.2-3.5,6.8-3.8h113.7c1.7,0.2,5.9,1.4,6.8,3.8
			c0.5,1.4-0.1,3.2-1.8,5.3H27.3z"/>
		<path fill="#CCAE66" d="M146,2c1.7,0.3,5.3,1.3,6,3.1c0.4,1.1-0.4,2.7-1.4,3.9H89.2H27.8c-1-1.3-1.8-2.8-1.4-3.9
			c0.7-1.8,4.2-2.9,6-3.1h56.8H146 M146.1,0H89.2H32.3c0,0-13.4,1.8-5.4,11.1h62.3h62.3C159.5,1.8,146.1,0,146.1,0L146.1,0z"/>
	</g>
	<g>
		<path fill="#FFFFCC" d="M22.1,25.5c-1.9,0-3.4-1.5-3.4-3.2c0-1.8,1.5-3.2,3.4-3.2h134.3c1.9,0,3.4,1.5,3.4,3.2
			c0,1.8-1.5,3.2-3.4,3.2H22.1z"/>
		<path fill="#CCAE66" d="M156.4,20.1c1.3,0,2.4,1,2.4,2.2c0,1.2-1.1,2.2-2.4,2.2H22.1c-1.3,0-2.4-1-2.4-2.2c0-1.2,1.1-2.2,2.4-2.2
			H156.4 M156.4,18.1H22.1c-2.4,0-4.4,1.9-4.4,4.2c0,2.3,2,4.2,4.4,4.2h134.3c2.4,0,4.4-1.9,4.4-4.2C160.8,20,158.8,18.1,156.4,18.1
			L156.4,18.1z"/>
	</g>
	<g>
		<path fill="#FFFFCC" d="M3.8,48c0.1-7.6,5-10.4,6-10.9h158.8c1,0.5,5.9,3.3,6,10.9H3.8z"/>
		<path fill="#CCAE66" d="M168.4,38.1c1.1,0.6,4.7,3,5.2,8.9H4.9c0.4-5.9,4.1-8.3,5.2-8.9H168.4 M168.9,36.1H9.6c0,0-7.2,3-6.7,12.9
			h172.8C176,39.1,168.9,36.1,168.9,36.1L168.9,36.1z"/>
	</g>
	<g>
		<rect x="1" y="55.9" fill="#FFFFCC" width="176.4" height="10.5"/>
		<path fill="#CCAE66" d="M176.4,56.9v8.5H2v-8.5H176.4 M178.4,54.9H0v12.5h178.4V54.9L178.4,54.9z"/>
	</g>
</g>
</svg>
