<?xml version="1.0" encoding="utf-8"?>
<!-- Generator: Adobe Illustrator 18.1.1, SVG Export Plug-In . SVG Version: 6.00 Build 0)  -->
<svg version="1.1" id="Layer_1" xmlns="http://www.w3.org/2000/svg" xmlns:xlink="http://www.w3.org/1999/xlink" x="0px" y="0px"
	 viewBox="0 0 133 287" enable-background="new 0 0 133 287" xml:space="preserve" preserveAspectRatio="none">
<g>
	<g>
		<polygon fill="#FFFFCC" points="7,278 17.4,10.3 120.1,10.3 127,278 		"/>
		<path fill="#CCAE66" d="M119.1,11.3L126,277H8L18.4,11.3H119.1 M121.1,9.3H16.5L5.9,279H128L121.1,9.3L121.1,9.3z"/>
	</g>
	<g>
		<path fill="#FFFFCC" d="M87.4,278.9c-2.2,0-4-0.8-4.8-1.2L86,9.5c1-0.5,2-0.7,3-0.7c1.2,0,2.2,0.4,2.6,0.7L91.3,278
			C90.1,278.6,88.8,278.9,87.4,278.9L87.4,278.9z"/>
		<path fill="#CCAE66" d="M89,9.8c0.7,0,1.2,0.1,1.6,0.3l-0.3,267.3c-0.9,0.4-1.9,0.5-2.9,0.5c-1.6,0-3-0.5-3.8-0.9L87,10.2
			C87.7,9.9,88.4,9.8,89,9.8 M89,7.8c-1.1,0-2.5,0.3-4,1.1l-3.4,269.3c0,0,2.5,1.7,5.8,1.7c1.5,0,3.2-0.3,4.9-1.3L92.7,8.9
			C92.7,8.9,91.3,7.8,89,7.8L89,7.8z"/>
	</g>
	<g>
		<path fill="#FFFFCC" d="M66.9,279.4c-4.2,0-6.6-1.1-7.5-1.6l2-268.4c0.2-0.5,2-1.2,5.5-1.2c3.5,0,5.2,0.7,5.5,1.2l2,268.4
			C73.6,278.3,71.2,279.4,66.9,279.4z"/>
		<path fill="#CCAE66" d="M66.9,9.3c2.4,0,3.9,0.3,4.5,0.6l2,267.3c-1,0.5-3.1,1.2-6.5,1.2c-3.4,0-5.5-0.7-6.5-1.2l2-267.3
			C63,9.6,64.5,9.3,66.9,9.3 M66.9,7.3c-2.1,0-6.1,0.2-6.5,2l-2,269c0,0,2.5,2,8.5,2c6,0,8.5-2,8.5-2l-2-269
			C73.1,7.5,69,7.3,66.9,7.3L66.9,7.3z"/>
	</g>
	<g>
		<path fill="#FFFFCC" d="M108.7,278.9c-1.3,0-2.6-0.3-3.9-0.9L104.5,9.4c0.5-0.3,1.4-0.7,2.6-0.7c1,0,2,0.2,3,0.7l3.4,268.1
			C112.7,278.1,110.9,278.9,108.7,278.9C108.7,278.9,108.7,278.9,108.7,278.9z"/>
		<path fill="#CCAE66" d="M107.1,9.8c0.7,0,1.3,0.1,2,0.4l3.4,266.8c-0.8,0.4-2.2,0.9-3.8,0.9c-1,0-2-0.2-2.9-0.5l-0.3-267.3
			C105.9,9.9,106.4,9.8,107.1,9.8 M107.1,7.8c-2.3,0-3.6,1.1-3.6,1.1l0.3,269.7c1.7,0.9,3.4,1.3,4.9,1.3c3.4,0,5.8-1.7,5.8-1.7
			L111.1,8.9C109.6,8.1,108.2,7.8,107.1,7.8L107.1,7.8z"/>
	</g>
	<g>
		<path fill="#FFFFCC" d="M125.6,279c-0.5,0-0.9-0.2-1.3-0.5L118.5,9.8c0.1,0,0.3-0.1,0.5-0.1c0.3,0,0.7,0.1,1.1,0.2l6.9,268.6
			C126.7,278.7,126.2,279,125.6,279z"/>
		<path fill="#CCAE66" d="M121.6,107.5l4.4,170.4c-0.1,0-0.3,0.1-0.4,0.1c-0.1,0-0.2,0-0.3-0.1L121.6,107.5 M119,8.7
			c-1.1,0-1.5,0.5-1.5,0.5l5.8,269.6c0.8,0.8,1.6,1.1,2.3,1.1c1.4,0,2.4-0.9,2.4-0.9l-7-269.8C120.2,8.9,119.5,8.7,119,8.7L119,8.7z
			"/>
	</g>
	<g>
		<path fill="#FFFFCC" d="M46.5,278.9c-1.3,0-2.6-0.3-3.9-0.9L42.3,9.4c0.5-0.3,1.4-0.7,2.6-0.7c1,0,2,0.2,3,0.7l3.4,268.1
			C50.5,278.1,48.7,278.9,46.5,278.9L46.5,278.9z"/>
		<path fill="#CCAE66" d="M44.9,9.8c0.7,0,1.3,0.1,2,0.4L50.3,277c-0.8,0.4-2.2,0.9-3.8,0.9c-1,0-2-0.2-2.9-0.5L43.3,10.1
			C43.7,9.9,44.2,9.8,44.9,9.8 M44.9,7.8c-2.3,0-3.6,1.1-3.6,1.1l0.3,269.7c1.7,0.9,3.4,1.3,4.9,1.3c3.4,0,5.8-1.7,5.8-1.7L48.9,8.9
			C47.4,8.1,46,7.8,44.9,7.8L44.9,7.8z"/>
	</g>
	<g>
		<path fill="#FFFFCC" d="M25.3,278.9c-2.2,0-4-0.8-4.8-1.2L23.8,9.5c1-0.5,2-0.7,3-0.7c1.2,0,2.2,0.4,2.6,0.7L29.1,278
			C27.9,278.6,26.6,278.9,25.3,278.9C25.3,278.9,25.3,278.9,25.3,278.9z"/>
		<path fill="#CCAE66" d="M26.9,9.8c0.7,0,1.2,0.1,1.6,0.3l-0.3,267.3c-0.9,0.4-1.9,0.5-2.9,0.5c-1.6,0-3-0.5-3.8-0.9l3.4-266.8
			C25.5,9.9,26.2,9.8,26.9,9.8 M26.9,7.8c-1.1,0-2.5,0.3-4,1.1l-3.4,269.3c0,0,2.5,1.7,5.8,1.7c1.5,0,3.2-0.3,4.9-1.3L30.5,8.9
			C30.5,8.9,29.1,7.8,26.9,7.8L26.9,7.8z"/>
	</g>
	<g>
		<path fill="#FFFFCC" d="M8.4,279c-0.6,0-1.1-0.2-1.4-0.4L13.9,9.9c0.4-0.1,0.8-0.2,1.1-0.2c0.2,0,0.4,0,0.5,0.1L9.7,278.4
			C9.3,278.8,8.8,279,8.4,279C8.4,279,8.4,279,8.4,279z"/>
		<path fill="#CCAE66" d="M12.4,107L8.7,277.9C8.6,278,8.5,278,8.4,278c-0.1,0-0.3,0-0.4-0.1L12.4,107 M14.9,8.7
			c-0.5,0-1.2,0.1-2.1,0.5L5.9,279c0,0,1.1,0.9,2.4,0.9c0.7,0,1.5-0.3,2.3-1.1L16.5,9.3C16.5,9.3,16,8.7,14.9,8.7L14.9,8.7z"/>
	</g>
	<g>
		<path fill="#FFFFCC" d="M6.4,285.9c-2.5,0-4.5-2-4.5-4.5v-0.5c0-2.5,2-4.5,4.5-4.5h120.3c2.5,0,4.5,2,4.5,4.5v0.5
			c0,2.5-2,4.5-4.5,4.5H6.4z"/>
		<path fill="#CCAE66" d="M126.7,277.3c2,0,3.5,1.6,3.5,3.5v0.5c0,2-1.6,3.5-3.5,3.5H6.3c-2,0-3.5-1.6-3.5-3.5v-0.5
			c0-2,1.6-3.5,3.5-3.5H126.7 M126.7,275.3H6.3c-3.1,0-5.5,2.5-5.5,5.5v0.5c0,3.1,2.5,5.5,5.5,5.5h120.3c3.1,0,5.5-2.5,5.5-5.5v-0.5
			C132.2,277.8,129.7,275.3,126.7,275.3L126.7,275.3z"/>
	</g>
	<g>
		<path fill="#FFFFCC" d="M6.4,10.7c-2.5,0-4.5-2-4.5-4.5V5.7c0-2.5,2-4.5,4.5-4.5h120.3c2.5,0,4.5,2,4.5,4.5v0.5
			c0,2.5-2,4.5-4.5,4.5H6.4z"/>
		<path fill="#CCAE66" d="M126.7,2.1c2,0,3.5,1.6,3.5,3.5v0.5c0,2-1.6,3.5-3.5,3.5H6.3c-2,0-3.5-1.6-3.5-3.5V5.7
			c0-2,1.6-3.5,3.5-3.5H126.7 M126.7,0.1H6.3c-3.1,0-5.5,2.5-5.5,5.5v0.5c0,3.1,2.5,5.5,5.5,5.5h120.3c3.1,0,5.5-2.5,5.5-5.5V5.7
			C132.2,2.6,129.7,0.1,126.7,0.1L126.7,0.1z"/>
	</g>
</g>
</svg>
